<svg xmlns="http://www.w3.org/2000/svg" width="1200" height="320" viewBox="0 0 1200 320" role="img" aria-label="Asmita Roy: AI/ML, Software, AI Products" xmlns:c2pa="http://c2pa.org/manifest"><metadata><c2pa:manifest>AAAWgmp1bWIAAAAeanVtZGMycGEAEQAQgAAAqgA4m3EDYzJwYQAAABZcanVtYgAAAEdqdW1kYzJtYQARABCAAACqADibcQN1cm46YzJwYTpmMjFiZjlhMy0yYzcxLTRjNTktOTcyNi1mMmNkZTExODg5NDYAAAADl2p1bWIAAAApanVtZGMyYXMAEQAQgAAAqgA4m3EDYzJwYS5hc3NlcnRpb25zAAAAALxqdW1iAAAARGp1bWRjYm9yABEAEIAAAKoAOJtxE2MycGEuaW5ncmVkaWVudC52MwAAAAAYYzJzaGTn+IsIzweLFnEqoJJ4ZGoAAABwY2JvcqNpZGM6Zm9ybWF0bWltYWdlL3N2Zyt4bWxqaW5zdGFuY2VJRHgseG1wOmlpZDo2MmIyYjk5Yy0yZGU1LTQwMDAtOGEyZi00YmM3ZWUwYjJiOGNscmVsYXRpb25zaGlwaHBhcmVudE9mAAAB4mp1bWIAAABBanVtZGNib3IAEQAQgAAAqgA4m3ETYzJwYS5hY3Rpb25zLnYyAAAAABhjMnNoD5Wpvk0K9DLwa1y52RlvwQAAAZljYm9yomdhY3Rpb25zgqJmYWN0aW9ua2MycGEub3BlbmVkanBhcmFtZXRlcnOha2luZ3JlZGllbnRzgaJjdXJseC1zZWxmI2p1bWJmPWMycGEuYXNzZXJ0aW9ucy9jMnBhLmluZ3JlZGllbnQudjNkaGFzaFggpeR68QQymAjIxBkREc3DVVlh14N8DdLSZ4JDAk5MrbWkZmFjdGlvbngdY29tLmFudGhyb3BpYy5jbGF1ZGUucHJvdmlkZWRqcGFyYW1ldGVyc6F4H2NvbS5hbnRocm9waWMub3JpZ2luLWNvbmZpZGVuY2VndW5rbm93bmtkZXNjcmlwdGlvbnhmQ2xhdWRlIHByb3ZpZGVkIHRoaXMgZmlsZSBhdCB0aGUgcmVxdWVzdCBvZiBhIHVzZXIgYW5kIG1heSBoYXZlIGNyZWF0ZWQgb3IgbW9kaWZpZWQgdGhlIGZpbGUgY29udGVudHMubXNvZnR3YXJlQWdlbnShZG5hbWVmQ2xhdWRlcmFsbEFjdGlvbnNJbmNsdWRlZPUAAADIanVtYgAAAEBqdW1kY2JvcgARABCAAACqADibcRNjMnBhLmhhc2guZGF0YQAAAAAYYzJzaDBUYSGWPtqkH8+7EnpsdloAAACAY2JvcqVjYWxnZnNoYTI1NmNwYWRNAAAAAAAAAAAAAAAAAGRoYXNoWCAcg/J2T6FBpZCjYtA5Mkfpzf8kCZIovKELX/mUWe746GRuYW1lbmp1bWJmIG1hbmlmZXN0amV4Y2x1c2lvbnOBomVzdGFydBjZZmxlbmd0aBkeBAAAAj5qdW1iAAAAJ2p1bWRjMmNsABEAEIAAAKoAOJtxA2MycGEuY2xhaW0udjIAAAACD2Nib3KlY2FsZ2ZzaGEyNTZpc2lnbmF0dXJleE1zZWxmI2p1bWJmPS9jMnBhL3VybjpjMnBhOmYyMWJmOWEzLTJjNzEtNGM1OS05NzI2LWYyY2RlMTE4ODk0Ni9jMnBhLnNpZ25hdHVyZWppbnN0YW5jZUlEeCx4bXA6aWlkOjE2MTVkZGEzLWZlMTktNDBkMC04NzlmLWU4NTU3OTcxNDBmZnJjcmVhdGVkX2Fzc2VydGlvbnODomN1cmx4LXNlbGYjanVtYmY9YzJwYS5hc3NlcnRpb25zL2MycGEuaW5ncmVkaWVudC52M2RoYXNoWCCl5HrxBDKYCMjEGRERzcNVWWHXg3wN0tJngkMCTkyttaJjdXJseCpzZWxmI2p1bWJmPWMycGEuYXNzZXJ0aW9ucy9jMnBhLmFjdGlvbnMudjJkaGFzaFggm5gtGGEKKniYJfsjPm43IeItutj8rW8Ju/69k+YXPcGiY3VybHgpc2VsZiNqdW1iZj1jMnBhLmFzc2VydGlvbnMvYzJwYS5oYXNoLmRhdGFkaGFzaFggBmlq4GE1MsS7DfdV/SzzxkAUt/YZL5yjWqZd5AtLx+p0Y2xhaW1fZ2VuZXJhdG9yX2luZm+jZG5hbWVvQW50aHJvcGljIEZpbGVzZ3ZlcnNpb25lMS4wLjBrc3BlY1ZlcnNpb25lMi40LjAAABA4anVtYgAAAChqdW1kYzJjcwARABCAAACqADibcQNjMnBhLnNpZ25hdHVyZQAAABAIY2JvctKEWQISogEmGCFZAgowggIGMIIBjaADAgECAhRA5aAK7sI50L64g/oGQgU9Z1UTADAKBggqhkjOPQQDAzBJMRcwFQYDVQQKEw5BbnRocm9waWMsIFBCQzEuMCwGA1UEAxMlQW50aHJvcGljIENvbnRlbnQgQ3JlZGVudGlhbHMgUm9vdCBDQTAeFw0yNjA4MDcxODQzNTZaFw0yODA4MDYxOTQzNTZaMEQxFzAVBgNVBAoTDkFudGhyb3BpYywgUEJDMSkwJwYDVQQDEyBBbnRocm9waWMgQ2xhdWRlIENvbnRlbnQgU2lnbmluZzBZMBMGByqGSM49AgEGCCqGSM49AwEHA0IABJh6CmvLUBgFFNU0vUKlOVtE6djd17L5SuwX0LemFisBM3dkd/3cyjxFA3Qo5S46fX0/ihY0VZ7mfb9KF703t5OjWDBWMA4GA1UdDwEB/wQEAwIHgDAVBgNVHSUEDjAMBgorBgEEAYPoXgIBMAwGA1UdEwEB/wQCMAAwHwYDVR0jBBgwFoAUzlHiBIFOZFsj+OPEz5o+nMHXXMIwCgYIKoZIzj0EAwMDZwAwZAIwMXMdFJ4BetLLVY7ORuE9noqbbAZOZn/aArXyTwFAZfKrPzxF2vPoJNf1+UCdg1XGAjBwX1zd9WGqYkqmL5SFqw1QySjr1zJfpJM9+1rdDwSPLMOPOjKuiXjoU/pUUeG9RwmhY3BhZFkNngAAAAAAAAAAAAAAAAAAAAAAAAAAAAAAAAAAAAAAAAAAAAAAAAAAAAAAAAAAAAAAAAAAAAAAAAAAAAAAAAAAAAAAAAAAAAAAAAAAAAAAAAAAAAAAAAAAAAAAAAAAAAAAAAAAAAAAAAAAAAAAAAAAAAAAAAAAAAAAAAAAAAAAAAAAAAAAAAAAAAAAAAAAAAAAAAAAAAAAAAAAAAAAAAAAAAAAAAAAAAAAAAAAAAAAAAAAAAAAAAAAAAAAAAAAAAAAAAAAAAAAAAAAAAAAAAAAAAAAAAAAAAAAAAAAAAAAAAAAAAAAAAAAAAAAAAAAAAAAAAAAAAAAAAAAAAAAAAAAAAAAAAAAAAAAAAAAAAAAAAAAAAAAAAAAAAAAAAAAAAAAAAAAAAAAAAAAAAAAAAAAAAAAAAAAAAAAAAAAAAAAAAAAAAAAAAAAAAAAAAAAAAAAAAAAAAAAAAAAAAAAAAAAAAAAAAAAAAAAAAAAAAAAAAAAAAAAAAAAAAAAAAAAAAAAAAAAAAAAAAAAAAAAAAAAAAAAAAAAAAAAAAAAAAAAAAAAAAAAAAAAAAAAAAAAAAAAAAAAAAAAAAAAAAAAAAAAAAAAAAAAAAAAAAAAAAAAAAAAAAAAAAAAAAAAAAAAAAAAAAAAAAAAAAAAAAAAAAAAAAAAAAAAAAAAAAAAAAAAAAAAAAAAAAAAAAAAAAAAAAAAAAAAAAAAAAAAAAAAAAAAAAAAAAAAAAAAAAAAAAAAAAAAAAAAAAAAAAAAAAAAAAAAAAAAAAAAAAAAAAAAAAAAAAAAAAAAAAAAAAAAAAAAAAAAAAAAAAAAAAAAAAAAAAAAAAAAAAAAAAAAAAAAAAAAAAAAAAAAAAAAAAAAAAAAAAAAAAAAAAAAAAAAAAAAAAAAAAAAAAAAAAAAAAAAAAAAAAAAAAAAAAAAAAAAAAAAAAAAAAAAAAAAAAAAAAAAAAAAAAAAAAAAAAAAAAAAAAAAAAAAAAAAAAAAAAAAAAAAAAAAAAAAAAAAAAAAAAAAAAAAAAAAAAAAAAAAAAAAAAAAAAAAAAAAAAAAAAAAAAAAAAAAAAAAAAAAAAAAAAAAAAAAAAAAAAAAAAAAAAAAAAAAAAAAAAAAAAAAAAAAAAAAAAAAAAAAAAAAAAAAAAAAAAAAAAAAAAAAAAAAAAAAAAAAAAAAAAAAAAAAAAAAAAAAAAAAAAAAAAAAAAAAAAAAAAAAAAAAAAAAAAAAAAAAAAAAAAAAAAAAAAAAAAAAAAAAAAAAAAAAAAAAAAAAAAAAAAAAAAAAAAAAAAAAAAAAAAAAAAAAAAAAAAAAAAAAAAAAAAAAAAAAAAAAAAAAAAAAAAAAAAAAAAAAAAAAAAAAAAAAAAAAAAAAAAAAAAAAAAAAAAAAAAAAAAAAAAAAAAAAAAAAAAAAAAAAAAAAAAAAAAAAAAAAAAAAAAAAAAAAAAAAAAAAAAAAAAAAAAAAAAAAAAAAAAAAAAAAAAAAAAAAAAAAAAAAAAAAAAAAAAAAAAAAAAAAAAAAAAAAAAAAAAAAAAAAAAAAAAAAAAAAAAAAAAAAAAAAAAAAAAAAAAAAAAAAAAAAAAAAAAAAAAAAAAAAAAAAAAAAAAAAAAAAAAAAAAAAAAAAAAAAAAAAAAAAAAAAAAAAAAAAAAAAAAAAAAAAAAAAAAAAAAAAAAAAAAAAAAAAAAAAAAAAAAAAAAAAAAAAAAAAAAAAAAAAAAAAAAAAAAAAAAAAAAAAAAAAAAAAAAAAAAAAAAAAAAAAAAAAAAAAAAAAAAAAAAAAAAAAAAAAAAAAAAAAAAAAAAAAAAAAAAAAAAAAAAAAAAAAAAAAAAAAAAAAAAAAAAAAAAAAAAAAAAAAAAAAAAAAAAAAAAAAAAAAAAAAAAAAAAAAAAAAAAAAAAAAAAAAAAAAAAAAAAAAAAAAAAAAAAAAAAAAAAAAAAAAAAAAAAAAAAAAAAAAAAAAAAAAAAAAAAAAAAAAAAAAAAAAAAAAAAAAAAAAAAAAAAAAAAAAAAAAAAAAAAAAAAAAAAAAAAAAAAAAAAAAAAAAAAAAAAAAAAAAAAAAAAAAAAAAAAAAAAAAAAAAAAAAAAAAAAAAAAAAAAAAAAAAAAAAAAAAAAAAAAAAAAAAAAAAAAAAAAAAAAAAAAAAAAAAAAAAAAAAAAAAAAAAAAAAAAAAAAAAAAAAAAAAAAAAAAAAAAAAAAAAAAAAAAAAAAAAAAAAAAAAAAAAAAAAAAAAAAAAAAAAAAAAAAAAAAAAAAAAAAAAAAAAAAAAAAAAAAAAAAAAAAAAAAAAAAAAAAAAAAAAAAAAAAAAAAAAAAAAAAAAAAAAAAAAAAAAAAAAAAAAAAAAAAAAAAAAAAAAAAAAAAAAAAAAAAAAAAAAAAAAAAAAAAAAAAAAAAAAAAAAAAAAAAAAAAAAAAAAAAAAAAAAAAAAAAAAAAAAAAAAAAAAAAAAAAAAAAAAAAAAAAAAAAAAAAAAAAAAAAAAAAAAAAAAAAAAAAAAAAAAAAAAAAAAAAAAAAAAAAAAAAAAAAAAAAAAAAAAAAAAAAAAAAAAAAAAAAAAAAAAAAAAAAAAAAAAAAAAAAAAAAAAAAAAAAAAAAAAAAAAAAAAAAAAAAAAAAAAAAAAAAAAAAAAAAAAAAAAAAAAAAAAAAAAAAAAAAAAAAAAAAAAAAAAAAAAAAAAAAAAAAAAAAAAAAAAAAAAAAAAAAAAAAAAAAAAAAAAAAAAAAAAAAAAAAAAAAAAAAAAAAAAAAAAAAAAAAAAAAAAAAAAAAAAAAAAAAAAAAAAAAAAAAAAAAAAAAAAAAAAAAAAAAAAAAAAAAAAAAAAAAAAAAAAAAAAAAAAAAAAAAAAAAAAAAAAAAAAAAAAAAAAAAAAAAAAAAAAAAAAAAAAAAAAAAAAAAAAAAAAAAAAAAAAAAAAAAAAAAAAAAAAAAAAAAAAAAAAAAAAAAAAAAAAAAAAAAAAAAAAAAAAAAAAAAAAAAAAAAAAAAAAAAAAAAAAAAAAAAAAAAAAAAAAAAAAAAAAAAAAAAAAAAAAAAAAAAAAAAAAAAAAAAAAAAAAAAAAAAAAAAAAAAAAAAAAAAAAAAAAAAAAAAAAAAAAAAAAAAAAAAAAAAAAAAAAAAAAAAAAAAAAAAAAAAAAAAAAAAAAAAAAAAAAAAAAAAAAAAAAAAAAAAAAAAAAAAAAAAAAAAAAAAAAAAAAAAAAAAAAAAAAAAAAAAAAAAAAAAAAAAAAAAAAAAAAAAAAAAAAAAAAAAAAAAAAAAAAAAAAAAAAAAAAAAAAAAAAAAAAAAAAAAAAAAAAAAAAAAAAAAAAAAAAAAAAAAAAAAAAAAAAAAAAAAAAAAAAAAAAAAAAAAAAAAAAAAAAAAAAAAAAAAAAAAAAAAAAAAAAAAAAAAAAAAAAAAAAAAAAAAAAAAAAAAAAAAAAAAAAAAAAAAAAAAAAAAAAAAAAAAAAAAAAAAAAAAAAAAAAAAAAAAAAAAAAAAAAAAAAAAAAAAAAAAAAAAAAAAAAAAAAAAAAAAAAAAAAAAAAAAAAAAAAAAAAAAAAAAAAAAAAAAAAAAAAAAAAAAAAAAAAAAAAAAAAAAAAAAAAAAAAAAAAAAAAAAAAAAAAAAAAAAAAAAAAAAAAAAAAAAAAAAAAAAAAAAAAAAAAAAAAAAAAAAAAAAAAAAAAAAAAAAAAAAAAAAAAAAAAAAAAAAAAAAAAAAAAAAAAAAAAAAAAAAAAAAAAAAAAAAAAAAAAAAAAAAAAAAAAAAAAAAAAAAAAAAAAAAAAAAAAAAAAAAAAAAAAAAAAAAAAAAAAAAAAAAAAAAAAAAAAAAAAAAAAAAAAAAAAAAAAAAAAAAAAAAAAAAAAAAAAAAAAAAAAAAAAAAAAAAAAAAAAAAAAAAAAAAAAAAAAAAAAAAAAAAAAAAAAAAAAAAAAAAAAAAAAAAAAAAAAAAAAAAAAAAAAAAAAAAAAAAAAAAAAAAAAAAAAAAAAAAAAAAAAAAAAAAAAAAAAAAAAAAAAAAAAAAAAAAAAAAAAAAAAAAAAAAAAAAAAAAAAAAAAAAAAAAAAAAAAAAAAAAAAAAAAAAAAAAAAAAAAAAAAAAAAAAAAAAAAAAAAAAAAAAAAAAAAAAAAAAAAAAAAAAAAAAAAAAAAAAAAAAAAAAAAAAAAAAAAAAAAAAAAAAAAAAAAAAAAAAAAAAAAAAAAAAAAAAAAAAAAAAAAAAAAAAAAAAAAAAAAAAAAAAAAAAAAAAAAAAAAAAAAAAAAAAAAAAAAAAAAAAAAAAAAAAAAAAAAAAAAAAAAAAAAAAAAAAAAAAAAAAAAAAAAAAAAAAAAAAAAAAAAAAAAAAAAAAAAAAAAAAAAAAAAAAAAAAAAAAAAAAAAAAAAAAAAAAAAAAAAAAAAAAAAAAAAAAAAAAAAAAAAAAAAAAAAAAAAAAAAAAAAAAAAAAAAAAAAAAAAAAAAAAAAAAAAAAAAAAAAAAAAAAAAAAAAAAAAAAAAAAAAAAAAAAAAAAAAAAAAAAAAAAAAAAAAAAAAAAAAAAAAAAAAAAAAAAAAAAAAAAAAAAAAAAAAAAAAAAAAAAAAAAAAAAAAAAAAAAAAAAAAAAAAAAAAAAAAAAAAAAAAAAAAAAAAAAAAAAAAAAAAAAAAAAAAAAAAAAAAAAAAAAAAAAAAAAAAAAAAAPZYQG9PqdRJAbgmM8zxTQJ2Ek4MIjJpp9m9Mf81sYJee4+B5x9JKW74c9UIkjLirv/YAAg1ikUXAdNDwjNJoMqJnnA=</c2pa:manifest></metadata>
<defs>
  <linearGradient id="bg" x1="0" y1="0" x2="1" y2="1"><stop offset="0" stop-color="#12121C"/><stop offset="1" stop-color="#0D1117"/></linearGradient>
  <radialGradient id="g1" cx="0.12" cy="0.1" r="0.55"><stop offset="0" stop-color="#B9A8FF" stop-opacity="0.26"/><stop offset="1" stop-color="#B9A8FF" stop-opacity="0"/></radialGradient>
  <radialGradient id="g2" cx="0.85" cy="1" r="0.5"><stop offset="0" stop-color="#F4A6C0" stop-opacity="0.18"/><stop offset="1" stop-color="#F4A6C0" stop-opacity="0"/></radialGradient>
  <radialGradient id="g3" cx="0.52" cy="0.05" r="0.22"><stop offset="0" stop-color="#7FDBD0" stop-opacity="0.13"/><stop offset="1" stop-color="#7FDBD0" stop-opacity="0"/></radialGradient>
  <linearGradient id="title" x1="0" y1="0" x2="1" y2="0"><stop offset="0" stop-color="#D9CFFF"/><stop offset="0.55" stop-color="#B9A8FF"/><stop offset="1" stop-color="#F4A6C0"/></linearGradient>
  <linearGradient id="rule" x1="0" y1="0" x2="1" y2="0"><stop offset="0" stop-color="#B9A8FF"/><stop offset="1" stop-color="#7FDBD0"/></linearGradient>
  <clipPath id="round"><rect width="1200" height="320" rx="18"/></clipPath>
</defs>
<g clip-path="url(#round)">
  <rect width="1200" height="320" fill="url(#bg)"/>
  <rect width="1200" height="320" fill="url(#g1)"/>
  <rect width="1200" height="320" fill="url(#g2)"/>
  <rect width="1200" height="320" fill="url(#g3)"/>

  <!-- editor bar -->
  <rect width="1200" height="38" fill="#161B22" opacity="0.85"/>
  <line x1="0" y1="38" x2="1200" y2="38" stroke="#B9A8FF" stroke-opacity="0.18"/>
  <circle cx="26" cy="19" r="5" fill="#F4A6C0" opacity="0.7"/><circle cx="46" cy="19" r="5" fill="#B9A8FF" opacity="0.7"/><circle cx="66" cy="19" r="5" fill="#7FDBD0" opacity="0.7"/>
  <rect x="96" y="8" width="118" height="30" rx="6" fill="#0D1117" opacity="0.9"/>
  <text x="112" y="28" font-family="'SFMono-Regular', Consolas, 'Liberation Mono', Menlo, monospace" font-size="12.5" fill="#B9A8FF" opacity="0.85">asmita.py</text>

  <!-- neural network -->
  <line x1="700" y1="90" x2="790" y2="70" stroke="#B9A8FF" stroke-opacity="0.16" stroke-width="1"/><line x1="700" y1="90" x2="790" y2="125" stroke="#B9A8FF" stroke-opacity="0.16" stroke-width="1"/><line x1="700" y1="90" x2="790" y2="180" stroke="#B9A8FF" stroke-opacity="0.16" stroke-width="1"/><line x1="700" y1="90" x2="790" y2="235" stroke="#B9A8FF" stroke-opacity="0.16" stroke-width="1"/><line x1="700" y1="150" x2="790" y2="70" stroke="#B9A8FF" stroke-opacity="0.16" stroke-width="1"/><line x1="700" y1="150" x2="790" y2="125" stroke="#B9A8FF" stroke-opacity="0.16" stroke-width="1"/><line x1="700" y1="150" x2="790" y2="180" stroke="#7FDBD0" stroke-opacity="0.16" stroke-width="1"/><line x1="700" y1="150" x2="790" y2="235" stroke="#B9A8FF" stroke-opacity="0.16" stroke-width="1"/><line x1="700" y1="210" x2="790" y2="125" stroke="#B9A8FF" stroke-opacity="0.16" stroke-width="1"/><line x1="700" y1="210" x2="790" y2="180" stroke="#7FDBD0" stroke-opacity="0.16" stroke-width="1"/><line x1="700" y1="210" x2="790" y2="235" stroke="#B9A8FF" stroke-opacity="0.16" stroke-width="1"/><line x1="700" y1="210" x2="790" y2="290" stroke="#B9A8FF" stroke-opacity="0.16" stroke-width="1"/><line x1="700" y1="270" x2="790" y2="70" stroke="#B9A8FF" stroke-opacity="0.16" stroke-width="1"/><line x1="700" y1="270" x2="790" y2="125" stroke="#F4A6C0" stroke-opacity="0.16" stroke-width="1"/><line x1="700" y1="270" x2="790" y2="180" stroke="#B9A8FF" stroke-opacity="0.16" stroke-width="1"/><line x1="700" y1="270" x2="790" y2="235" stroke="#B9A8FF" stroke-opacity="0.16" stroke-width="1"/><line x1="700" y1="270" x2="790" y2="290" stroke="#B9A8FF" stroke-opacity="0.16" stroke-width="1"/><line x1="790" y1="70" x2="880" y2="90" stroke="#B9A8FF" stroke-opacity="0.16" stroke-width="1"/><line x1="790" y1="70" x2="880" y2="150" stroke="#7FDBD0" stroke-opacity="0.16" stroke-width="1"/><line x1="790" y1="70" x2="880" y2="270" stroke="#7FDBD0" stroke-opacity="0.16" stroke-width="1"/><line x1="790" y1="125" x2="880" y2="90" stroke="#B9A8FF" stroke-opacity="0.16" stroke-width="1"/><line x1="790" y1="125" x2="880" y2="270" stroke="#F4A6C0" stroke-opacity="0.16" stroke-width="1"/><line x1="790" y1="180" x2="880" y2="90" stroke="#F4A6C0" stroke-opacity="0.16" stroke-width="1"/><line x1="790" y1="180" x2="880" y2="210" stroke="#B9A8FF" stroke-opacity="0.16" stroke-width="1"/><line x1="790" y1="180" x2="880" y2="270" stroke="#7FDBD0" stroke-opacity="0.16" stroke-width="1"/><line x1="790" y1="235" x2="880" y2="90" stroke="#F4A6C0" stroke-opacity="0.16" stroke-width="1"/><line x1="790" y1="235" x2="880" y2="150" stroke="#7FDBD0" stroke-opacity="0.16" stroke-width="1"/><line x1="790" y1="235" x2="880" y2="210" stroke="#B9A8FF" stroke-opacity="0.16" stroke-width="1"/><line x1="790" y1="290" x2="880" y2="90" stroke="#F4A6C0" stroke-opacity="0.16" stroke-width="1"/><line x1="790" y1="290" x2="880" y2="150" stroke="#F4A6C0" stroke-opacity="0.16" stroke-width="1"/><line x1="790" y1="290" x2="880" y2="210" stroke="#7FDBD0" stroke-opacity="0.16" stroke-width="1"/><line x1="790" y1="290" x2="880" y2="270" stroke="#B9A8FF" stroke-opacity="0.16" stroke-width="1"/><line x1="880" y1="90" x2="970" y2="180" stroke="#B9A8FF" stroke-opacity="0.16" stroke-width="1"/><line x1="880" y1="90" x2="970" y2="240" stroke="#F4A6C0" stroke-opacity="0.16" stroke-width="1"/><line x1="880" y1="210" x2="970" y2="120" stroke="#7FDBD0" stroke-opacity="0.16" stroke-width="1"/><line x1="880" y1="210" x2="970" y2="240" stroke="#7FDBD0" stroke-opacity="0.16" stroke-width="1"/><line x1="880" y1="270" x2="970" y2="120" stroke="#B9A8FF" stroke-opacity="0.16" stroke-width="1"/><line x1="880" y1="270" x2="970" y2="180" stroke="#B9A8FF" stroke-opacity="0.16" stroke-width="1"/>
  <circle cx="700" cy="90" r="9" fill="#B9A8FF" opacity="0.07"/><circle cx="700" cy="90" r="3.2" fill="#B9A8FF" opacity="0.75"/><circle cx="700" cy="150" r="9" fill="#B9A8FF" opacity="0.07"/><circle cx="700" cy="150" r="3.2" fill="#B9A8FF" opacity="0.75"/><circle cx="700" cy="210" r="9" fill="#7FDBD0" opacity="0.07"/><circle cx="700" cy="210" r="3.2" fill="#7FDBD0" opacity="0.75"/><circle cx="700" cy="270" r="9" fill="#7FDBD0" opacity="0.07"/><circle cx="700" cy="270" r="3.2" fill="#7FDBD0" opacity="0.75"/><circle cx="790" cy="70" r="9" fill="#7FDBD0" opacity="0.07"/><circle cx="790" cy="70" r="3.2" fill="#7FDBD0" opacity="0.75"/><circle cx="790" cy="125" r="9" fill="#B9A8FF" opacity="0.07"/><circle cx="790" cy="125" r="3.2" fill="#B9A8FF" opacity="0.75"/><circle cx="790" cy="180" r="9" fill="#B9A8FF" opacity="0.07"/><circle cx="790" cy="180" r="3.2" fill="#B9A8FF" opacity="0.75"/><circle cx="790" cy="235" r="9" fill="#7FDBD0" opacity="0.07"/><circle cx="790" cy="235" r="3.2" fill="#7FDBD0" opacity="0.75"/><circle cx="790" cy="290" r="9" fill="#7FDBD0" opacity="0.07"/><circle cx="790" cy="290" r="3.2" fill="#7FDBD0" opacity="0.75"/><circle cx="880" cy="90" r="9" fill="#F4A6C0" opacity="0.07"/><circle cx="880" cy="90" r="3.2" fill="#F4A6C0" opacity="0.75"/><circle cx="880" cy="150" r="9" fill="#B9A8FF" opacity="0.07"/><circle cx="880" cy="150" r="3.2" fill="#B9A8FF" opacity="0.75"/><circle cx="880" cy="210" r="9" fill="#7FDBD0" opacity="0.07"/><circle cx="880" cy="210" r="3.2" fill="#7FDBD0" opacity="0.75"/><circle cx="880" cy="270" r="9" fill="#F4A6C0" opacity="0.07"/><circle cx="880" cy="270" r="3.2" fill="#F4A6C0" opacity="0.75"/><circle cx="970" cy="120" r="9" fill="#7FDBD0" opacity="0.07"/><circle cx="970" cy="120" r="3.2" fill="#7FDBD0" opacity="0.75"/><circle cx="970" cy="180" r="9" fill="#F4A6C0" opacity="0.07"/><circle cx="970" cy="180" r="3.2" fill="#F4A6C0" opacity="0.75"/><circle cx="970" cy="240" r="9" fill="#7FDBD0" opacity="0.07"/><circle cx="970" cy="240" r="3.2" fill="#7FDBD0" opacity="0.75"/>

  <!-- interface fragment -->
  <g opacity="0.55">
    <rect x="1030" y="92" width="130" height="86" rx="10" fill="#161B22" stroke="#B9A8FF" stroke-opacity="0.45"/>
    <rect x="1044" y="108" width="52" height="7" rx="3.5" fill="#B9A8FF" opacity="0.8"/>
    <rect x="1044" y="124" width="98" height="5" rx="2.5" fill="#ffffff" opacity="0.22"/>
    <rect x="1044" y="136" width="80" height="5" rx="2.5" fill="#ffffff" opacity="0.22"/>
    <rect x="1044" y="152" width="40" height="14" rx="7" fill="#F4A6C0" opacity="0.75"/>
  </g>
  <g opacity="0.4">
    <rect x="1060" y="196" width="100" height="62" rx="10" fill="#161B22" stroke="#7FDBD0" stroke-opacity="0.5"/>
    <rect x="1074" y="212" width="30" height="6" rx="3" fill="#7FDBD0" opacity="0.8"/>
    <rect x="1074" y="226" width="72" height="5" rx="2.5" fill="#ffffff" opacity="0.22"/>
    <rect x="1074" y="238" width="54" height="5" rx="2.5" fill="#ffffff" opacity="0.22"/>
  </g>

  <!-- faint code -->
  <text x="60" y="76" font-family="'SFMono-Regular', Consolas, 'Liberation Mono', Menlo, monospace" font-size="12.5" fill="#B9A8FF" opacity="0.38"># decisions, not just text</text>
  <text x="60" y="296" font-family="'SFMono-Regular', Consolas, 'Liberation Mono', Menlo, monospace" font-size="12.5" fill="#F4A6C0" opacity="0.34">agent.plan() → act() → reflect() → ship()</text>

  <path d="M507,46 Q507,53 514,53 Q507,53 507,60 Q507,53 500,53 Q507,53 507,46Z" fill="#F4A6C0" opacity="0.37"/><path d="M38,80 Q38,87 45,87 Q38,87 38,94 Q38,87 31,87 Q38,87 38,80Z" fill="#ffffff" opacity="0.52"/><path d="M682,289 Q682,293 686,293 Q682,293 682,297 Q682,293 678,293 Q682,293 682,289Z" fill="#B9A8FF" opacity="0.46"/><path d="M833,144 Q833,151 840,151 Q833,151 833,158 Q833,151 826,151 Q833,151 833,144Z" fill="#7FDBD0" opacity="0.3"/><path d="M850,61 Q850,65 854,65 Q850,65 850,69 Q850,65 846,65 Q850,65 850,61Z" fill="#B9A8FF" opacity="0.69"/><path d="M932,88 Q932,91 935,91 Q932,91 932,94 Q932,91 929,91 Q932,91 932,88Z" fill="#ffffff" opacity="0.52"/><path d="M239,46 Q239,50 243,50 Q239,50 239,54 Q239,50 235,50 Q239,50 239,46Z" fill="#B9A8FF" opacity="0.68"/><path d="M800,83 Q800,88 805,88 Q800,88 800,93 Q800,88 795,88 Q800,88 800,83Z" fill="#ffffff" opacity="0.52"/><path d="M1001,78 Q1001,81 1004,81 Q1001,81 1001,84 Q1001,81 998,81 Q1001,81 1001,78Z" fill="#7FDBD0" opacity="0.7"/><path d="M984,165 Q984,172 991,172 Q984,172 984,179 Q984,172 977,172 Q984,172 984,165Z" fill="#ffffff" opacity="0.29"/><path d="M731,234 Q731,239 736,239 Q731,239 731,244 Q731,239 726,239 Q731,239 731,234Z" fill="#7FDBD0" opacity="0.62"/><path d="M1111,138 Q1111,142 1115,142 Q1111,142 1111,146 Q1111,142 1107,142 Q1111,142 1111,138Z" fill="#B9A8FF" opacity="0.59"/><path d="M640,297 Q640,300 643,300 Q640,300 640,303 Q640,300 637,300 Q640,300 640,297Z" fill="#ffffff" opacity="0.48"/><path d="M1139,244 Q1139,249 1144,249 Q1139,249 1139,254 Q1139,249 1134,249 Q1139,249 1139,244Z" fill="#F4A6C0" opacity="0.53"/>

  <!-- text -->
  <text x="58" y="158" font-family="'Segoe UI', 'Helvetica Neue', Arial, sans-serif" font-size="70" font-weight="800" letter-spacing="6" fill="url(#title)">ASMITA ROY</text>
  <text x="60" y="196" font-family="'Segoe UI', 'Helvetica Neue', Arial, sans-serif" font-size="18" font-weight="600" letter-spacing="5" fill="#B9A8FF" opacity="0.95">AI / ML  ·  SOFTWARE  ·  AI PRODUCTS</text>
  <rect x="60" y="214" width="74" height="3" rx="1.5" fill="url(#rule)"/>
  <text x="60" y="248" font-family="'Segoe UI', 'Helvetica Neue', Arial, sans-serif" font-size="17" fill="#C9CBD6" opacity="0.9">Build ideas  →  ship products  →  make an impact</text>
</g>
<rect x="0.5" y="0.5" width="1199" height="319" rx="18" fill="none" stroke="#B9A8FF" stroke-opacity="0.3"/>
</svg>